<svg width="51" height="165" viewBox="0 0 51 165" fill="none" xmlns="http://www.w3.org/2000/svg">
<g clip-path="url(#clip0_32_1134)">
<path fill-rule="evenodd" clip-rule="evenodd" d="M39.2954 53.1277L39.2516 53.1956C39.055 53.4749 38.8488 53.7541 38.7347 53.9581C37.1836 56.7409 34.5087 59.1619 32.0669 61.1604C26.222 65.9392 20.6345 71.0313 15.1513 76.2229C13.6148 77.6774 12.258 79.319 10.8211 80.8683C10.3963 81.3272 9.98122 81.791 9.56371 82.2548C9.38406 82.4588 8.90601 82.7866 8.69969 82.9979C8.5492 83.1484 8.47635 83.2966 8.44726 83.3936C8.37927 83.6413 8.44233 83.838 8.57587 83.9934C8.6608 84.0954 8.82101 84.2363 9.14142 84.2338C12.5105 84.1974 16.9378 82.5826 21.5666 80.402C28.3654 77.1991 35.6156 72.7918 40.5162 70.6647C41.8051 70.1061 44.2349 68.5156 46.4704 67.4084C47.4607 66.9154 48.4025 66.505 49.1598 66.3763C48.7059 66.7988 48.0918 67.2723 47.7932 67.5953C46.5043 68.9915 45.0043 70.1838 43.6378 71.5C39.4799 75.5018 29.3751 90.1127 26.4332 95.1271C24.052 99.1823 12.6998 123.541 11.6778 139.137C11.656 139.473 11.9084 139.761 12.2434 139.783C12.5784 139.805 12.8673 139.55 12.8891 139.217C13.8989 123.807 25.1274 99.7483 27.4794 95.7413C30.3897 90.7829 40.3682 76.3298 44.4776 72.3766C45.8636 71.0435 47.3782 69.8318 48.6841 68.4185C49.155 67.9086 50.3273 67.0271 50.6623 66.4977C50.8516 66.199 50.8686 65.9246 50.8103 65.7279C50.7375 65.4875 50.5555 65.2302 50.087 65.1549C49.32 65.0335 48.2423 65.2981 47.0529 65.8008C44.5771 66.8498 41.5309 68.9017 40.0333 69.5525C35.1253 71.6821 27.8605 76.0943 21.0496 79.3045C17.2534 81.0917 13.6075 82.5122 10.6099 82.908C10.9739 82.5 11.3405 82.097 11.7118 81.6938C13.1294 80.1616 14.4668 78.542 15.9839 77.1045C21.4477 71.9346 27.0134 66.8595 32.834 62.1001C35.3899 60.0094 38.1716 57.4597 39.7954 54.5506C40.0236 54.1402 40.6183 53.4118 40.7397 52.9989C40.8173 52.7343 40.7808 52.5109 40.6934 52.3481C40.5891 52.1466 40.3998 51.9645 40.0308 51.9353C38.521 51.8115 35.9749 52.268 33.0039 53.0353C26.2561 54.7813 17.2509 58.1007 13.5105 59.3052C10.9983 60.1138 8.50552 61.0293 5.96902 61.7577C5.8428 61.7942 3.38149 62.2871 2.20912 62.5202C2.44457 61.8379 2.93006 60.9176 3.52717 59.8759C5.62919 56.2164 9.25309 51.2433 10.3332 49.7208C12.4037 46.7995 14.5445 43.939 16.547 40.9693C19.7073 36.2827 22.7098 31.499 25.9211 26.8464C26.1129 26.572 26.0425 26.1932 25.7682 26.0038C25.4915 25.812 25.1129 25.8824 24.9235 26.1568C21.7074 30.8118 18.7024 35.6003 15.5397 40.2918C13.5445 43.2518 11.4085 46.105 9.34288 49.019C8.25302 50.5561 4.59758 55.5778 2.47615 59.2712C1.50281 60.9637 0.866809 62.4109 0.840109 63.1807C0.835254 63.3944 0.951796 63.8266 1.54163 63.8557C2.2965 63.8922 6.12433 62.9767 6.30395 62.9257C8.8526 62.1924 11.3575 61.272 13.8818 60.461C17.6101 59.2615 26.5838 55.9517 33.3073 54.2131C35.7273 53.5865 37.8463 53.1568 39.2954 53.1277Z" fill="#C3E9FF"/>
</g>
<defs>
<clipPath id="clip0_32_1134">
<rect width="50" height="164" fill="white" transform="translate(0.839966 0.839966)"/>
</clipPath>
</defs>
</svg>
