<svg width="28" height="243" viewBox="0 0 28 243" fill="none" xmlns="http://www.w3.org/2000/svg">
<g clip-path="url(#clip0_32_1131)">
<path fill-rule="evenodd" clip-rule="evenodd" d="M-21.6842 2.21436C-20.8953 4.22544 -19.9943 6.97081 -18.5622 11.7282C-15.4082 22.2051 -12.6256 28.8182 -3.16519 48.3197C3.26901 61.5832 5.10591 65.7442 6.59071 70.4209C7.24401 72.4784 7.45541 75.2934 7.03431 76.3288L6.80441 76.8944L6.13111 76.7905C4.64861 76.5616 2.7812 75.6453 -1.55309 73.0202C-8.4593 68.8374 -11.1267 67.7764 -14.2383 67.9744C-21.8804 68.4609 -20.4438 78.2713 -9.96689 97.1431C-9.20389 98.5175 -6.73989 102.667 -4.49129 106.364C4.3036 120.825 5.84031 123.647 5.86621 125.381L5.87931 126.26L5.21971 126.226C4.18071 126.172 2.56201 125.578 -1.83349 123.636C-10.7706 119.687 -14.4438 119.153 -17.0531 121.425C-19.5088 123.563 -18.5271 130.333 -14.5483 138.701C-11.5587 144.988 -3.85359 157.994 7.30291 175.585C17.6633 191.921 19.1306 194.448 18.5957 195.037C18.4143 195.236 16.7348 194.352 9.86021 190.437C-3.42449 182.872 -6.30749 181.614 -10.3996 181.596C-17.908 181.562 -16.9582 186.92 -6.62169 202.904C0.174706 213.414 7.78501 222.793 19.4737 235.064C25.6434 241.542 26.9861 242.84 27.5165 242.84C27.9202 242.84 27.9569 242.457 27.5655 242.329C27.2545 242.228 25.2007 239.992 22.6555 236.985C21.7356 235.899 19.9121 233.824 18.6033 232.375C12.2532 225.345 2.31141 212.965 -1.61479 207.2C-8.91659 196.478 -13.0067 188.947 -13.3008 185.684C-13.4688 183.819 -12.983 183.494 -10.1863 183.603C-6.61929 183.743 -2.95139 185.373 9.29151 192.259C18.7154 197.56 19.6093 197.876 20.3897 196.183C21.3769 194.041 19.936 191.202 9.07991 173.902C-10.7323 142.328 -16.7468 130.371 -15.871 124.296C-15.4544 121.407 -11.1316 121.861 -2.24749 125.727C4.65501 128.731 6.52991 129.05 7.59891 127.402C9.085 125.11 7.75261 122.097 -2.5827 104.378C-11.5961 88.9248 -15.5283 80.2807 -16.0925 74.6791C-16.4218 71.4106 -15.8878 70.7485 -13.045 70.9001C-10.7809 71.0209 -8.73569 71.9437 -2.93549 75.4623C5.72841 80.7182 8.78051 81.0433 9.87081 76.8265C11.0372 72.3159 9.4127 67.6928 -0.660595 46.856C-6.03899 35.7303 -7.80849 31.8857 -11.3895 23.5455C-12.6601 20.5861 -14.559 16.4366 -15.6091 14.3244C-16.6593 12.2122 -18.3801 8.67276 -19.433 6.45897C-20.4859 4.2452 -21.5355 2.03873 -21.7652 1.55572C-22.3218 0.385385 -22.2854 0.681772 -21.6842 2.21436Z" fill="#FFEDC3"/>
</g>
<defs>
<clipPath id="clip0_32_1131">
<rect width="50" height="242" fill="white" transform="translate(-22.16 0.839966)"/>
</clipPath>
</defs>
</svg>
