<svg width="17" height="17" viewBox="0 0 17 17" fill="none" xmlns="http://www.w3.org/2000/svg">
<path d="M15.125 6.5625C15.7227 6.5625 16.25 7.08984 16.25 7.6875V8.8125C16.25 9.44531 15.7227 9.9375 15.125 9.9375H10.0625V15C10.0625 15.6328 9.53516 16.125 8.9375 16.125H7.8125C7.17969 16.125 6.6875 15.6328 6.6875 15V9.9375H1.625C0.992188 9.9375 0.5 9.44531 0.5 8.8125V7.6875C0.5 7.08984 0.992188 6.5625 1.625 6.5625H6.6875V1.5C6.6875 0.902344 7.17969 0.375 7.8125 0.375H8.9375C9.53516 0.375 10.0625 0.902344 10.0625 1.5V6.5625H15.125Z" fill="#2AA7FF"/>
</svg>
