<svg width="175" height="173" viewBox="0 0 175 173" fill="none" xmlns="http://www.w3.org/2000/svg">
<g opacity="0.3">
<rect width="4.6972" height="4.6972" rx="1.34409" transform="matrix(-1 0 0 1 174.109 0.689453)" fill="white"/>
<rect width="4.6972" height="4.6972" rx="1.34409" transform="matrix(-1 0 0 1 155.321 0.689453)" fill="white"/>
<rect width="4.6972" height="4.6972" rx="1.34409" transform="matrix(-1 0 0 1 136.531 0.689453)" fill="white"/>
<rect width="4.6972" height="4.6972" rx="1.34409" transform="matrix(-1 0 0 1 117.743 0.689453)" fill="white"/>
<rect width="4.6972" height="4.6972" rx="1.34409" transform="matrix(-1 0 0 1 98.9542 0.689453)" fill="white"/>
<rect width="4.6972" height="4.6972" rx="1.34409" transform="matrix(-1 0 0 1 80.165 0.689453)" fill="white"/>
<rect width="4.6972" height="4.6972" rx="1.34409" transform="matrix(-1 0 0 1 61.376 0.689453)" fill="white"/>
<rect width="4.6972" height="4.6972" rx="1.34409" transform="matrix(-1 0 0 1 42.5879 0.689453)" fill="white"/>
<rect width="4.6972" height="4.6972" rx="1.34409" transform="matrix(-1 0 0 1 23.7988 0.689453)" fill="white"/>
<rect width="4.6972" height="4.6972" rx="1.34409" transform="matrix(-1 0 0 1 5.0105 0.689453)" fill="white"/>
<rect width="4.6972" height="4.6972" rx="1.34409" transform="matrix(-1 0 0 1 174.109 19.478)" fill="white"/>
<rect width="4.6972" height="4.6972" rx="1.34409" transform="matrix(-1 0 0 1 155.321 19.478)" fill="white"/>
<rect width="4.6972" height="4.6972" rx="1.34409" transform="matrix(-1 0 0 1 136.531 19.4785)" fill="white"/>
<rect width="4.6972" height="4.6972" rx="1.34409" transform="matrix(-1 0 0 1 117.743 19.478)" fill="white"/>
<rect width="4.6972" height="4.6972" rx="1.34409" transform="matrix(-1 0 0 1 98.9542 19.478)" fill="white"/>
<rect width="4.6972" height="4.6972" rx="1.34409" transform="matrix(-1 0 0 1 80.165 19.4785)" fill="white"/>
<rect width="4.6972" height="4.6972" rx="1.34409" transform="matrix(-1 0 0 1 61.376 19.4785)" fill="white"/>
<rect width="4.6972" height="4.6972" rx="1.34409" transform="matrix(-1 0 0 1 42.5879 19.4785)" fill="white"/>
<rect width="4.6972" height="4.6972" rx="1.34409" transform="matrix(-1 0 0 1 23.7988 19.4785)" fill="white"/>
<rect width="4.6972" height="4.6972" rx="1.34409" transform="matrix(-1 0 0 1 5.0105 19.478)" fill="white"/>
<rect width="4.6972" height="4.6972" rx="1.34409" transform="matrix(-1 0 0 1 174.109 38.2671)" fill="white"/>
<rect width="4.6972" height="4.6972" rx="1.34409" transform="matrix(-1 0 0 1 155.321 38.2671)" fill="white"/>
<rect width="4.6972" height="4.6972" rx="1.34409" transform="matrix(-1 0 0 1 136.531 38.2671)" fill="white"/>
<rect width="4.6972" height="4.6972" rx="1.34409" transform="matrix(-1 0 0 1 117.743 38.2671)" fill="white"/>
<rect width="4.6972" height="4.6972" rx="1.34409" transform="matrix(-1 0 0 1 98.9542 38.2671)" fill="white"/>
<rect width="4.6972" height="4.6972" rx="1.34409" transform="matrix(-1 0 0 1 80.165 38.2671)" fill="white"/>
<rect width="4.6972" height="4.6972" rx="1.34409" transform="matrix(-1 0 0 1 61.376 38.2671)" fill="white"/>
<rect width="4.6972" height="4.6972" rx="1.34409" transform="matrix(-1 0 0 1 42.5879 38.2671)" fill="white"/>
<rect width="4.6972" height="4.6972" rx="1.34409" transform="matrix(-1 0 0 1 23.7988 38.2671)" fill="white"/>
<rect width="4.6972" height="4.6972" rx="1.34409" transform="matrix(-1 0 0 1 5.0105 38.2671)" fill="white"/>
<rect width="4.6972" height="4.6972" rx="1.34409" transform="matrix(-1 0 0 1 174.109 57.0557)" fill="white"/>
<rect width="4.6972" height="4.6972" rx="1.34409" transform="matrix(-1 0 0 1 155.321 57.0557)" fill="white"/>
<rect width="4.6972" height="4.6972" rx="1.34409" transform="matrix(-1 0 0 1 136.531 57.0557)" fill="white"/>
<rect width="4.6972" height="4.6972" rx="1.34409" transform="matrix(-1 0 0 1 117.743 57.0557)" fill="white"/>
<rect width="4.6972" height="4.6972" rx="1.34409" transform="matrix(-1 0 0 1 98.9542 57.0557)" fill="white"/>
<rect width="4.6972" height="4.6972" rx="1.34409" transform="matrix(-1 0 0 1 80.165 57.0557)" fill="white"/>
<rect width="4.6972" height="4.6972" rx="1.34409" transform="matrix(-1 0 0 1 61.376 57.0557)" fill="white"/>
<rect width="4.6972" height="4.6972" rx="1.34409" transform="matrix(-1 0 0 1 42.5879 57.0557)" fill="white"/>
<rect width="4.6972" height="4.6972" rx="1.34409" transform="matrix(-1 0 0 1 23.7988 57.0557)" fill="white"/>
<rect width="4.6972" height="4.6972" rx="1.34409" transform="matrix(-1 0 0 1 5.0105 57.0557)" fill="white"/>
<rect width="4.6972" height="4.6972" rx="1.34409" transform="matrix(-1 0 0 1 174.109 75.8447)" fill="white"/>
<rect width="4.6972" height="4.6972" rx="1.34409" transform="matrix(-1 0 0 1 155.321 75.8447)" fill="white"/>
<rect width="4.6972" height="4.6972" rx="1.34409" transform="matrix(-1 0 0 1 136.531 75.8447)" fill="white"/>
<rect width="4.6972" height="4.6972" rx="1.34409" transform="matrix(-1 0 0 1 117.743 75.8447)" fill="white"/>
<rect width="4.6972" height="4.6972" rx="1.34409" transform="matrix(-1 0 0 1 98.9542 75.8447)" fill="white"/>
<rect width="4.6972" height="4.6972" rx="1.34409" transform="matrix(-1 0 0 1 80.165 75.8447)" fill="white"/>
<rect width="4.6972" height="4.6972" rx="1.34409" transform="matrix(-1 0 0 1 61.376 75.8447)" fill="white"/>
<rect width="4.6972" height="4.6972" rx="1.34409" transform="matrix(-1 0 0 1 42.5879 75.8447)" fill="white"/>
<rect width="4.6972" height="4.6972" rx="1.34409" transform="matrix(-1 0 0 1 23.7988 75.8447)" fill="white"/>
<rect width="4.6972" height="4.6972" rx="1.34409" transform="matrix(-1 0 0 1 5.0105 75.8447)" fill="white"/>
<rect width="4.6972" height="4.6972" rx="1.34409" transform="matrix(-1 0 0 1 174.109 94.6333)" fill="white"/>
<rect width="4.6972" height="4.6972" rx="1.34409" transform="matrix(-1 0 0 1 155.321 94.6333)" fill="white"/>
<rect width="4.6972" height="4.6972" rx="1.34409" transform="matrix(-1 0 0 1 136.531 94.6333)" fill="white"/>
<rect width="4.6972" height="4.6972" rx="1.34409" transform="matrix(-1 0 0 1 117.743 94.6333)" fill="white"/>
<rect width="4.6972" height="4.6972" rx="1.34409" transform="matrix(-1 0 0 1 98.9542 94.6333)" fill="white"/>
<rect width="4.6972" height="4.6972" rx="1.34409" transform="matrix(-1 0 0 1 80.165 94.6333)" fill="white"/>
<rect width="4.6972" height="4.6972" rx="1.34409" transform="matrix(-1 0 0 1 61.376 94.6333)" fill="white"/>
<rect width="4.6972" height="4.6972" rx="1.34409" transform="matrix(-1 0 0 1 42.5879 94.6333)" fill="white"/>
<rect width="4.6972" height="4.6972" rx="1.34409" transform="matrix(-1 0 0 1 23.7988 94.6333)" fill="white"/>
<rect width="4.6972" height="4.6972" rx="1.34409" transform="matrix(-1 0 0 1 5.0105 94.6333)" fill="white"/>
<rect width="4.6972" height="4.6972" rx="1.34409" transform="matrix(-1 0 0 1 174.109 113.422)" fill="white"/>
<rect width="4.6972" height="4.6972" rx="1.34409" transform="matrix(-1 0 0 1 174.109 131.543)" fill="white"/>
<rect width="4.6972" height="4.6972" rx="1.34409" transform="matrix(-1 0 0 1 174.109 149.664)" fill="white"/>
<rect width="4.6972" height="4.6972" rx="1.34409" transform="matrix(-1 0 0 1 174.109 167.785)" fill="white"/>
<rect width="4.6972" height="4.6972" rx="1.34409" transform="matrix(-1 0 0 1 155.321 113.422)" fill="white"/>
<rect width="4.6972" height="4.6972" rx="1.34409" transform="matrix(-1 0 0 1 155.321 131.543)" fill="white"/>
<rect width="4.6972" height="4.6972" rx="1.34409" transform="matrix(-1 0 0 1 155.321 149.664)" fill="white"/>
<rect width="4.6972" height="4.6972" rx="1.34409" transform="matrix(-1 0 0 1 155.321 167.785)" fill="white"/>
<rect width="4.6972" height="4.6972" rx="1.34409" transform="matrix(-1 0 0 1 136.531 113.422)" fill="white"/>
<rect width="4.6972" height="4.6972" rx="1.34409" transform="matrix(-1 0 0 1 136.531 131.543)" fill="white"/>
<rect width="4.6972" height="4.6972" rx="1.34409" transform="matrix(-1 0 0 1 136.531 149.664)" fill="white"/>
<rect width="4.6972" height="4.6972" rx="1.34409" transform="matrix(-1 0 0 1 136.531 167.785)" fill="white"/>
<rect width="4.6972" height="4.6972" rx="1.34409" transform="matrix(-1 0 0 1 117.743 113.422)" fill="white"/>
<rect width="4.6972" height="4.6972" rx="1.34409" transform="matrix(-1 0 0 1 117.743 131.543)" fill="white"/>
<rect width="4.6972" height="4.6972" rx="1.34409" transform="matrix(-1 0 0 1 117.743 149.664)" fill="white"/>
<rect width="4.6972" height="4.6972" rx="1.34409" transform="matrix(-1 0 0 1 117.743 167.785)" fill="white"/>
<rect width="4.6972" height="4.6972" rx="1.34409" transform="matrix(-1 0 0 1 98.9542 113.422)" fill="white"/>
<rect width="4.6972" height="4.6972" rx="1.34409" transform="matrix(-1 0 0 1 98.9542 131.543)" fill="white"/>
<rect width="4.6972" height="4.6972" rx="1.34409" transform="matrix(-1 0 0 1 98.9542 149.664)" fill="white"/>
<rect width="4.6972" height="4.6972" rx="1.34409" transform="matrix(-1 0 0 1 98.9542 167.785)" fill="white"/>
<rect width="4.6972" height="4.6972" rx="1.34409" transform="matrix(-1 0 0 1 80.165 113.422)" fill="white"/>
<rect width="4.6972" height="4.6972" rx="1.34409" transform="matrix(-1 0 0 1 80.165 131.543)" fill="white"/>
<rect width="4.6972" height="4.6972" rx="1.34409" transform="matrix(-1 0 0 1 80.165 149.664)" fill="white"/>
<rect width="4.6972" height="4.6972" rx="1.34409" transform="matrix(-1 0 0 1 80.165 167.785)" fill="white"/>
<rect width="4.6972" height="4.6972" rx="1.34409" transform="matrix(-1 0 0 1 61.376 113.422)" fill="white"/>
<rect width="4.6972" height="4.6972" rx="1.34409" transform="matrix(-1 0 0 1 61.376 131.543)" fill="white"/>
<rect width="4.6972" height="4.6972" rx="1.34409" transform="matrix(-1 0 0 1 61.376 149.664)" fill="white"/>
<rect width="4.6972" height="4.6972" rx="1.34409" transform="matrix(-1 0 0 1 61.376 167.785)" fill="white"/>
<rect width="4.6972" height="4.6972" rx="1.34409" transform="matrix(-1 0 0 1 42.5879 113.422)" fill="white"/>
<rect width="4.6972" height="4.6972" rx="1.34409" transform="matrix(-1 0 0 1 42.5879 131.543)" fill="white"/>
<rect width="4.6972" height="4.6972" rx="1.34409" transform="matrix(-1 0 0 1 42.5879 149.664)" fill="white"/>
<rect width="4.6972" height="4.6972" rx="1.34409" transform="matrix(-1 0 0 1 42.5879 167.785)" fill="white"/>
<rect width="4.6972" height="4.6972" rx="1.34409" transform="matrix(-1 0 0 1 23.7988 113.422)" fill="white"/>
<rect width="4.6972" height="4.6972" rx="1.34409" transform="matrix(-1 0 0 1 23.7988 131.543)" fill="white"/>
<rect width="4.6972" height="4.6972" rx="1.34409" transform="matrix(-1 0 0 1 23.7988 149.664)" fill="white"/>
<rect width="4.6972" height="4.6972" rx="1.34409" transform="matrix(-1 0 0 1 23.7988 167.785)" fill="white"/>
<rect width="4.6972" height="4.6972" rx="1.34409" transform="matrix(-1 0 0 1 5.0105 113.422)" fill="white"/>
<rect width="4.6972" height="4.6972" rx="1.34409" transform="matrix(-1 0 0 1 5.0105 131.543)" fill="white"/>
<rect width="4.6972" height="4.6972" rx="1.34409" transform="matrix(-1 0 0 1 5.0105 149.664)" fill="white"/>
<rect width="4.6972" height="4.6972" rx="1.34409" transform="matrix(-1 0 0 1 5.0105 167.785)" fill="white"/>
</g>
</svg>
